<svg width="32" height="32" viewBox="0 0 32 32" fill="none" xmlns="http://www.w3.org/2000/svg">
<path d="M28.415 3.585C28.1635 3.33366 27.8496 3.15392 27.5055 3.06427C27.1614 2.97463 26.7997 2.97833 26.4575 3.075H26.4388L2.44627 10.355C2.05676 10.4673 1.71056 10.6952 1.45354 11.0087C1.19652 11.3221 1.04082 11.7063 1.00707 12.1102C0.973316 12.5142 1.06311 12.9189 1.26454 13.2706C1.46598 13.6224 1.76954 13.9047 2.13502 14.08L12.75 19.25L17.9125 29.8587C18.0731 30.2014 18.3284 30.4909 18.6482 30.6932C18.9681 30.8954 19.3391 31.0019 19.7175 31C19.775 31 19.8325 30.9975 19.89 30.9925C20.2936 30.9598 20.6776 30.8045 20.9904 30.5473C21.3032 30.2901 21.5299 29.9434 21.64 29.5537L28.915 5.56125C28.915 5.555 28.915 5.54875 28.915 5.5425C29.0129 5.2012 29.0182 4.83999 28.9304 4.49597C28.8425 4.15195 28.6646 3.83753 28.415 3.585ZM19.7288 28.9812L19.7225 28.9987V28.99L14.715 18.7025L20.715 12.7025C20.8946 12.5134 20.9933 12.2617 20.99 12.0009C20.9866 11.7402 20.8815 11.491 20.6971 11.3066C20.5127 11.1222 20.2636 11.0171 20.0028 11.0138C19.7421 11.0105 19.4903 11.1091 19.3013 11.2887L13.3013 17.2887L3.01002 12.2812H3.00127H3.01877L27 5L19.7288 28.9812Z" fill="#222930"/>
</svg>
