<svg width="27" height="30" viewBox="0 0 27 30" fill="none" xmlns="http://www.w3.org/2000/svg">
<path d="M7.11752 8.28088H7.08923L7.11028 6.71028C7.26616 6.71159 10.4133 6.70436 12.3186 4.0025L13.6025 4.90816C11.2854 8.19209 7.51345 8.28088 7.11752 8.28088Z" fill="#222930"/>
<path d="M6.70182 12.3435C6.18946 12.3435 5.65935 12.3159 5.11017 12.2567L5.27723 10.6953C13.0335 11.5267 16.5523 5.37909 16.5865 5.3166L17.9584 6.08152C17.921 6.14794 14.3733 12.3435 6.70182 12.3435Z" fill="#222930"/>
<path d="M14.6167 23.4324H11.0026V21.8618H13.0454V16.9632C13.0842 13.7727 14.7791 12.3975 15.0599 12.1916C16.8851 10.7407 19.1844 10.5033 21.708 11.5069L21.1279 12.9664C19.0943 12.1581 17.4257 12.3113 16.0255 13.4301L15.9742 13.4682C15.9281 13.5017 14.6469 14.4462 14.616 16.9731V23.4331L14.6167 23.4324Z" fill="#222930"/>
<path d="M21.1286 18.1978C20.9425 18.0149 19.2561 16.4647 17.5244 18.1945L16.4142 17.0843C18.7168 14.7816 21.2299 16.0773 22.2369 17.0843L21.1293 18.1978H21.1286Z" fill="#222930"/>
<path d="M9.56087 18.1978C9.37539 18.0149 7.68838 16.4647 5.95664 18.1945L4.84644 17.0843C7.14972 14.7816 9.66215 16.0773 10.6691 17.0843L9.56153 18.1978H9.56087Z" fill="#222930"/>
<path d="M13.3953 29.9187C5.8126 29.9187 0.718018 23.9257 0.718018 15.0059C0.718018 6.08612 5.8126 0.0931091 13.3953 0.0931091C20.978 0.0931091 26.0594 6.08612 26.0594 15.0059C26.0594 23.9257 20.9701 29.9187 13.3953 29.9187ZM13.3953 1.66371C6.75181 1.66371 2.28862 7.02533 2.28862 15.0059C2.28862 22.9865 6.75181 28.3481 13.3953 28.3481C20.0388 28.3481 24.4888 22.9865 24.4888 15.0059C24.4888 7.02533 20.0309 1.66371 13.3953 1.66371Z" fill="#222930"/>
</svg>
